<svg width="92" height="43" viewBox="0 0 92 43" fill="none" xmlns="http://www.w3.org/2000/svg">
<rect width="92" height="43" rx="4" fill="url(#paint0_linear_900_24)"/>
<path d="M12.5568 21.2159V20.3636C13.197 20.3636 13.6439 20.233 13.8977 19.9716C14.1515 19.7064 14.2784 19.2689 14.2784 18.6591V17.0284C14.2784 16.4489 14.3428 15.9621 14.4716 15.5682C14.6042 15.1705 14.8049 14.8523 15.0739 14.6136C15.3428 14.375 15.6837 14.2027 16.0966 14.0966C16.5095 13.9905 16.9962 13.9375 17.5568 13.9375V15.2841C17.1174 15.2841 16.7746 15.3485 16.5284 15.4773C16.2822 15.6061 16.1098 15.8068 16.0114 16.0795C15.9167 16.3485 15.8693 16.6932 15.8693 17.1136V19.1818C15.8693 19.4735 15.8258 19.7443 15.7386 19.9943C15.6515 20.2405 15.4905 20.4545 15.2557 20.6364C15.0208 20.8182 14.6856 20.9602 14.25 21.0625C13.8144 21.1648 13.25 21.2159 12.5568 21.2159ZM17.5568 28.4318C16.9962 28.4318 16.5095 28.3788 16.0966 28.2727C15.6837 28.1667 15.3428 27.9943 15.0739 27.7557C14.8049 27.517 14.6042 27.2008 14.4716 26.8068C14.3428 26.4091 14.2784 25.9205 14.2784 25.3409V23.7045C14.2784 23.0985 14.1515 22.6629 13.8977 22.3977C13.6439 22.1326 13.197 22 12.5568 22V21.1534C13.25 21.1534 13.8144 21.2045 14.25 21.3068C14.6856 21.4053 15.0208 21.5473 15.2557 21.733C15.4905 21.9148 15.6515 22.1307 15.7386 22.3807C15.8258 22.6269 15.8693 22.8958 15.8693 23.1875V25.2557C15.8693 25.6723 15.9167 26.017 16.0114 26.2898C16.1098 26.5587 16.2822 26.7595 16.5284 26.892C16.7746 27.0208 17.1174 27.0852 17.5568 27.0852V28.4318ZM12.5568 22V20.3636H14.1307V22H12.5568ZM19.3253 15.3636H21.456L25.1605 24.4091H25.2969L29.0014 15.3636H31.1321V27H29.4616V18.5795H29.3537L25.9219 26.983H24.5355L21.1037 18.5739H20.9957V27H19.3253V15.3636ZM37.8949 21.1534V22C37.2547 22 36.8078 22.1326 36.554 22.3977C36.3002 22.6629 36.1733 23.0985 36.1733 23.7045V25.3409C36.1733 25.9205 36.107 26.4091 35.9744 26.8068C35.8456 27.2008 35.6468 27.517 35.3778 27.7557C35.1089 27.9943 34.768 28.1667 34.3551 28.2727C33.9422 28.3788 33.4555 28.4318 32.8949 28.4318V27.0852C33.3343 27.0852 33.6771 27.0208 33.9233 26.892C34.1695 26.7595 34.34 26.5587 34.4347 26.2898C34.5331 26.017 34.5824 25.6723 34.5824 25.2557V23.1875C34.5824 22.8958 34.6259 22.6269 34.7131 22.3807C34.8002 22.1307 34.9612 21.9148 35.196 21.733C35.4309 21.5473 35.7661 21.4053 36.2017 21.3068C36.6373 21.2045 37.2017 21.1534 37.8949 21.1534ZM32.8949 13.9375C33.4555 13.9375 33.9422 13.9905 34.3551 14.0966C34.768 14.2027 35.1089 14.375 35.3778 14.6136C35.6468 14.8523 35.8456 15.1705 35.9744 15.5682C36.107 15.9621 36.1733 16.4489 36.1733 17.0284V18.6591C36.1733 19.2689 36.3002 19.7064 36.554 19.9716C36.8078 20.233 37.2547 20.3636 37.8949 20.3636V21.2159C37.2017 21.2159 36.6373 21.1648 36.2017 21.0625C35.7661 20.9602 35.4309 20.8182 35.196 20.6364C34.9612 20.4545 34.8002 20.2405 34.7131 19.9943C34.6259 19.7443 34.5824 19.4735 34.5824 19.1818V17.1136C34.5824 16.6932 34.5331 16.3485 34.4347 16.0795C34.34 15.8068 34.1695 15.6061 33.9233 15.4773C33.6771 15.3485 33.3343 15.2841 32.8949 15.2841V13.9375ZM37.8949 20.3636V22H36.321V20.3636H37.8949ZM39.9531 27V15.3636H51.5895V27H39.9531ZM41.4077 25.5455H50.1349V16.8182H41.4077V25.5455ZM54.5938 27V15.3636H66.2301V27H54.5938ZM56.0483 25.5455H64.7756V16.8182H56.0483V25.5455ZM78.4048 15.3636V27H76.7912L70.8764 18.4659H70.7685V27H69.0128V15.3636H70.6378L76.5582 23.9091H76.6662V15.3636H78.4048Z" fill="white"/>
<defs>
<linearGradient id="paint0_linear_900_24" x1="-1.37091e-06" y1="43" x2="89.4176" y2="-4.82801" gradientUnits="userSpaceOnUse">
<stop stop-color="#002D6A"/>
<stop offset="1" stop-color="#00648D"/>
</linearGradient>
</defs>
</svg>
